<mxfile host="app.diagrams.net" modified="2024-06-20T13:24:02.280Z" agent="Mozilla/5.0 (Windows NT 10.0; Win64; x64) AppleWebKit/537.36 (KHTML, like Gecko) Chrome/126.0.0.0 Safari/537.36" etag="EpcScElRP75gWpJNZWnG" version="24.5.3" type="github">
  <diagram name="Page-1" id="i1FonXV85PyBtVJrlxVC">
    <mxGraphModel dx="2175" dy="1880" grid="1" gridSize="10" guides="1" tooltips="1" connect="1" arrows="1" fold="1" page="1" pageScale="1" pageWidth="827" pageHeight="1169" math="0" shadow="0">
      <root>
        <mxCell id="0" />
        <mxCell id="1" parent="0" />
        <mxCell id="m3kiHNj2FQEK4pVcbGnA-4" value="" style="line;strokeWidth=2;direction=south;html=1;" vertex="1" parent="1">
          <mxGeometry x="210" y="-31.45" width="10" height="180" as="geometry" />
        </mxCell>
        <mxCell id="m3kiHNj2FQEK4pVcbGnA-6" value="" style="line;strokeWidth=2;direction=south;html=1;strokeColor=#f20d0d;" vertex="1" parent="1">
          <mxGeometry x="235" y="-31.45" width="10" height="180" as="geometry" />
        </mxCell>
        <mxCell id="m3kiHNj2FQEK4pVcbGnA-7" value="" style="line;strokeWidth=2;direction=south;html=1;" vertex="1" parent="1">
          <mxGeometry x="280" y="-31.45" width="10" height="180" as="geometry" />
        </mxCell>
        <mxCell id="m3kiHNj2FQEK4pVcbGnA-8" value="" style="line;strokeWidth=2;direction=south;html=1;strokeColor=#f41010;" vertex="1" parent="1">
          <mxGeometry x="330" y="-31.45" width="10" height="180" as="geometry" />
        </mxCell>
        <mxCell id="m3kiHNj2FQEK4pVcbGnA-9" value="" style="line;strokeWidth=2;direction=south;html=1;" vertex="1" parent="1">
          <mxGeometry x="380" y="-31.45" width="10" height="180" as="geometry" />
        </mxCell>
        <mxCell id="m3kiHNj2FQEK4pVcbGnA-10" value="" style="shape=curlyBracket;whiteSpace=wrap;html=1;rounded=1;labelPosition=left;verticalLabelPosition=middle;align=right;verticalAlign=middle;rotation=-90;" vertex="1" parent="1">
          <mxGeometry x="277.5" y="82.5" width="20" height="215" as="geometry" />
        </mxCell>
        <mxCell id="m3kiHNj2FQEK4pVcbGnA-11" value="&lt;i&gt;&lt;b&gt;Convolutionl Layers and&amp;nbsp;&lt;/b&gt;&lt;/i&gt;&lt;div&gt;&lt;i&gt;&lt;b&gt;Pooling Layers and&amp;nbsp;&lt;/b&gt;&lt;/i&gt;&lt;/div&gt;&lt;div&gt;&lt;i&gt;&lt;b&gt;normalisation Layers&lt;/b&gt;&lt;/i&gt;&lt;/div&gt;" style="text;html=1;align=center;verticalAlign=middle;resizable=0;points=[];autosize=1;strokeColor=none;fillColor=none;" vertex="1" parent="1">
          <mxGeometry x="205" y="210" width="170" height="60" as="geometry" />
        </mxCell>
        <mxCell id="m3kiHNj2FQEK4pVcbGnA-12" value="&lt;i&gt;&lt;b&gt;Inception V3 CNN model&lt;/b&gt;&lt;/i&gt;" style="text;html=1;align=center;verticalAlign=middle;resizable=0;points=[];autosize=1;strokeColor=none;fillColor=none;" vertex="1" parent="1">
          <mxGeometry x="220" y="-90" width="160" height="30" as="geometry" />
        </mxCell>
        <mxCell id="m3kiHNj2FQEK4pVcbGnA-13" value="" style="line;strokeWidth=2;direction=south;html=1;strokeColor=#0af58f;" vertex="1" parent="1">
          <mxGeometry x="360" y="-31.45" width="10" height="180" as="geometry" />
        </mxCell>
        <mxCell id="m3kiHNj2FQEK4pVcbGnA-14" value="" style="line;strokeWidth=2;direction=south;html=1;strokeColor=#3333FF;" vertex="1" parent="1">
          <mxGeometry x="297.5" y="-31.45" width="10" height="180" as="geometry" />
        </mxCell>
        <mxCell id="m3kiHNj2FQEK4pVcbGnA-15" value="" style="line;strokeWidth=2;direction=south;html=1;strokeColor=#0ff047;" vertex="1" parent="1">
          <mxGeometry x="250" y="-31.45" width="10" height="180" as="geometry" />
        </mxCell>
        <mxCell id="m3kiHNj2FQEK4pVcbGnA-16" value="" style="rounded=1;whiteSpace=wrap;html=1;strokeWidth=2;fillWeight=4;hachureGap=8;hachureAngle=45;fillColor=#1ba1e2;sketch=1;" vertex="1" parent="1">
          <mxGeometry x="450" y="37.5" width="120" height="60" as="geometry" />
        </mxCell>
        <mxCell id="m3kiHNj2FQEK4pVcbGnA-17" value="&lt;b&gt;&lt;i&gt;Feature map&lt;/i&gt;&lt;/b&gt;" style="text;html=1;align=center;verticalAlign=middle;resizable=0;points=[];autosize=1;strokeColor=none;fillColor=none;" vertex="1" parent="1">
          <mxGeometry x="465" y="108" width="90" height="30" as="geometry" />
        </mxCell>
        <mxCell id="m3kiHNj2FQEK4pVcbGnA-18" value="&lt;i&gt;&lt;b&gt;&lt;font style=&quot;font-size: 20px;&quot;&gt;Caption 1&lt;/font&gt;&lt;/b&gt;&lt;/i&gt;" style="text;html=1;align=center;verticalAlign=middle;resizable=0;points=[];autosize=1;strokeColor=none;fillColor=none;" vertex="1" parent="1">
          <mxGeometry x="-13.440000000000005" y="295" width="110" height="40" as="geometry" />
        </mxCell>
        <mxCell id="m3kiHNj2FQEK4pVcbGnA-19" value="&lt;i&gt;&lt;b&gt;&lt;font style=&quot;font-size: 20px;&quot;&gt;Caption 2&lt;/font&gt;&lt;/b&gt;&lt;/i&gt;" style="text;html=1;align=center;verticalAlign=middle;resizable=0;points=[];autosize=1;strokeColor=none;fillColor=none;" vertex="1" parent="1">
          <mxGeometry x="-13.440000000000005" y="315" width="110" height="40" as="geometry" />
        </mxCell>
        <mxCell id="m3kiHNj2FQEK4pVcbGnA-20" value="&lt;i&gt;&lt;b&gt;&lt;font style=&quot;font-size: 20px;&quot;&gt;Caption 3&lt;/font&gt;&lt;/b&gt;&lt;/i&gt;" style="text;html=1;align=center;verticalAlign=middle;resizable=0;points=[];autosize=1;strokeColor=none;fillColor=none;" vertex="1" parent="1">
          <mxGeometry x="-13.440000000000005" y="335" width="110" height="40" as="geometry" />
        </mxCell>
        <mxCell id="m3kiHNj2FQEK4pVcbGnA-21" value="&lt;i&gt;&lt;b&gt;&lt;font style=&quot;font-size: 20px;&quot;&gt;Caption 4&lt;/font&gt;&lt;/b&gt;&lt;/i&gt;" style="text;html=1;align=center;verticalAlign=middle;resizable=0;points=[];autosize=1;strokeColor=none;fillColor=none;" vertex="1" parent="1">
          <mxGeometry x="-13.440000000000005" y="355" width="110" height="40" as="geometry" />
        </mxCell>
        <mxCell id="m3kiHNj2FQEK4pVcbGnA-22" value="&lt;i&gt;&lt;b&gt;&lt;font style=&quot;font-size: 20px;&quot;&gt;Caption 5&lt;/font&gt;&lt;/b&gt;&lt;/i&gt;" style="text;html=1;align=center;verticalAlign=middle;resizable=0;points=[];autosize=1;strokeColor=none;fillColor=none;" vertex="1" parent="1">
          <mxGeometry x="-13.440000000000005" y="375" width="110" height="40" as="geometry" />
        </mxCell>
        <mxCell id="m3kiHNj2FQEK4pVcbGnA-23" value="&lt;i&gt;&lt;b&gt;&lt;font style=&quot;font-size: 20px;&quot;&gt;Caption n&lt;/font&gt;&lt;/b&gt;&lt;/i&gt;" style="text;html=1;align=center;verticalAlign=middle;resizable=0;points=[];autosize=1;strokeColor=none;fillColor=none;" vertex="1" parent="1">
          <mxGeometry x="-18.440000000000005" y="415" width="120" height="40" as="geometry" />
        </mxCell>
        <mxCell id="m3kiHNj2FQEK4pVcbGnA-26" value="" style="shape=cylinder3;whiteSpace=wrap;html=1;boundedLbl=1;backgroundOutline=1;size=15;" vertex="1" parent="1">
          <mxGeometry x="148.43" y="310" width="40" height="80" as="geometry" />
        </mxCell>
        <mxCell id="m3kiHNj2FQEK4pVcbGnA-27" value="" style="shape=cylinder3;whiteSpace=wrap;html=1;boundedLbl=1;backgroundOutline=1;size=15;" vertex="1" parent="1">
          <mxGeometry x="208.43" y="310" width="40" height="80" as="geometry" />
        </mxCell>
        <mxCell id="m3kiHNj2FQEK4pVcbGnA-28" value="" style="shape=cylinder3;whiteSpace=wrap;html=1;boundedLbl=1;backgroundOutline=1;size=15;" vertex="1" parent="1">
          <mxGeometry x="265.93" y="310" width="40" height="80" as="geometry" />
        </mxCell>
        <mxCell id="m3kiHNj2FQEK4pVcbGnA-29" value="&amp;lt;start&amp;gt;" style="text;html=1;align=center;verticalAlign=middle;resizable=0;points=[];autosize=1;strokeColor=none;fillColor=none;" vertex="1" parent="1">
          <mxGeometry x="138.43" y="398" width="60" height="30" as="geometry" />
        </mxCell>
        <mxCell id="m3kiHNj2FQEK4pVcbGnA-30" value="y1" style="text;html=1;align=center;verticalAlign=middle;resizable=0;points=[];autosize=1;strokeColor=none;fillColor=none;" vertex="1" parent="1">
          <mxGeometry x="148.43" y="280" width="40" height="30" as="geometry" />
        </mxCell>
        <mxCell id="m3kiHNj2FQEK4pVcbGnA-31" value="y1" style="text;html=1;align=center;verticalAlign=middle;resizable=0;points=[];autosize=1;strokeColor=none;fillColor=none;" vertex="1" parent="1">
          <mxGeometry x="208.43" y="398" width="40" height="30" as="geometry" />
        </mxCell>
        <mxCell id="m3kiHNj2FQEK4pVcbGnA-32" value="y2" style="text;html=1;align=center;verticalAlign=middle;resizable=0;points=[];autosize=1;strokeColor=none;fillColor=none;" vertex="1" parent="1">
          <mxGeometry x="208.43" y="280" width="40" height="30" as="geometry" />
        </mxCell>
        <mxCell id="m3kiHNj2FQEK4pVcbGnA-33" value="y2" style="text;html=1;align=center;verticalAlign=middle;resizable=0;points=[];autosize=1;strokeColor=none;fillColor=none;" vertex="1" parent="1">
          <mxGeometry x="265.93" y="398" width="40" height="30" as="geometry" />
        </mxCell>
        <mxCell id="m3kiHNj2FQEK4pVcbGnA-34" value="&lt;b&gt;...&lt;/b&gt;" style="text;html=1;align=center;verticalAlign=middle;resizable=0;points=[];autosize=1;strokeColor=none;fillColor=none;" vertex="1" parent="1">
          <mxGeometry x="323.43" y="338" width="30" height="30" as="geometry" />
        </mxCell>
        <mxCell id="m3kiHNj2FQEK4pVcbGnA-36" value="" style="shape=cylinder3;whiteSpace=wrap;html=1;boundedLbl=1;backgroundOutline=1;size=15;" vertex="1" parent="1">
          <mxGeometry x="352.43" y="310" width="40" height="80" as="geometry" />
        </mxCell>
        <mxCell id="m3kiHNj2FQEK4pVcbGnA-37" value="yn-1" style="text;html=1;align=center;verticalAlign=middle;resizable=0;points=[];autosize=1;strokeColor=none;fillColor=none;" vertex="1" parent="1">
          <mxGeometry x="348.43" y="398" width="50" height="30" as="geometry" />
        </mxCell>
        <mxCell id="m3kiHNj2FQEK4pVcbGnA-38" value="yn" style="text;html=1;align=center;verticalAlign=middle;resizable=0;points=[];autosize=1;strokeColor=none;fillColor=none;" vertex="1" parent="1">
          <mxGeometry x="353.43" y="280" width="40" height="30" as="geometry" />
        </mxCell>
        <mxCell id="m3kiHNj2FQEK4pVcbGnA-39" value="" style="shape=curlyBracket;whiteSpace=wrap;html=1;rounded=1;labelPosition=left;verticalLabelPosition=middle;align=right;verticalAlign=middle;rotation=-90;" vertex="1" parent="1">
          <mxGeometry x="255.93" y="340" width="20" height="215" as="geometry" />
        </mxCell>
        <mxCell id="m3kiHNj2FQEK4pVcbGnA-40" value="&lt;b&gt;&lt;i&gt;LSTM&lt;/i&gt;&lt;/b&gt;" style="text;html=1;align=center;verticalAlign=middle;resizable=0;points=[];autosize=1;strokeColor=none;fillColor=none;" vertex="1" parent="1">
          <mxGeometry x="238.43" y="482.5" width="60" height="30" as="geometry" />
        </mxCell>
        <mxCell id="m3kiHNj2FQEK4pVcbGnA-41" value="" style="rounded=1;whiteSpace=wrap;html=1;strokeWidth=2;fillWeight=4;hachureGap=8;hachureAngle=45;fillColor=#1ba1e2;sketch=1;" vertex="1" parent="1">
          <mxGeometry x="458.43" y="325" width="120" height="60" as="geometry" />
        </mxCell>
        <mxCell id="m3kiHNj2FQEK4pVcbGnA-42" value="&lt;i&gt;&lt;b&gt;Feature map&lt;/b&gt;&lt;/i&gt;" style="text;html=1;align=center;verticalAlign=middle;resizable=0;points=[];autosize=1;strokeColor=none;fillColor=none;" vertex="1" parent="1">
          <mxGeometry x="473.43" y="408" width="90" height="30" as="geometry" />
        </mxCell>
        <mxCell id="m3kiHNj2FQEK4pVcbGnA-43" value="&lt;b&gt;&lt;i&gt;&lt;font style=&quot;font-size: 20px;&quot;&gt;Images&lt;/font&gt;&lt;/i&gt;&lt;/b&gt;" style="text;html=1;align=center;verticalAlign=middle;resizable=0;points=[];autosize=1;strokeColor=none;fillColor=none;strokeWidth=1;" vertex="1" parent="1">
          <mxGeometry x="-3.4399999999999995" y="47.5" width="90" height="40" as="geometry" />
        </mxCell>
        <mxCell id="m3kiHNj2FQEK4pVcbGnA-44" value="" style="shape=curlyBracket;whiteSpace=wrap;html=1;rounded=1;flipH=1;labelPosition=right;verticalLabelPosition=middle;align=left;verticalAlign=middle;" vertex="1" parent="1">
          <mxGeometry x="670" y="80" width="90" height="270" as="geometry" />
        </mxCell>
        <mxCell id="m3kiHNj2FQEK4pVcbGnA-45" value="" style="ellipse;whiteSpace=wrap;html=1;aspect=fixed;fillColor=#f8cecc;strokeColor=#b85450;" vertex="1" parent="1">
          <mxGeometry x="800" y="80" width="47.5" height="47.5" as="geometry" />
        </mxCell>
        <mxCell id="m3kiHNj2FQEK4pVcbGnA-46" value="" style="ellipse;whiteSpace=wrap;html=1;aspect=fixed;fillColor=#f8cecc;strokeColor=#b85450;" vertex="1" parent="1">
          <mxGeometry x="800" y="135.5" width="47.5" height="47.5" as="geometry" />
        </mxCell>
        <mxCell id="m3kiHNj2FQEK4pVcbGnA-47" value="" style="ellipse;whiteSpace=wrap;html=1;aspect=fixed;fillColor=#f8cecc;strokeColor=#b85450;" vertex="1" parent="1">
          <mxGeometry x="800" y="190" width="47.5" height="47.5" as="geometry" />
        </mxCell>
        <mxCell id="m3kiHNj2FQEK4pVcbGnA-48" value="" style="ellipse;whiteSpace=wrap;html=1;aspect=fixed;fillColor=#f8cecc;strokeColor=#b85450;" vertex="1" parent="1">
          <mxGeometry x="800" y="243.75" width="47.5" height="47.5" as="geometry" />
        </mxCell>
        <mxCell id="m3kiHNj2FQEK4pVcbGnA-49" value="" style="ellipse;whiteSpace=wrap;html=1;aspect=fixed;fillColor=#f8cecc;strokeColor=#b85450;" vertex="1" parent="1">
          <mxGeometry x="800" y="300" width="47.5" height="47.5" as="geometry" />
        </mxCell>
        <mxCell id="m3kiHNj2FQEK4pVcbGnA-50" value="" style="ellipse;whiteSpace=wrap;html=1;aspect=fixed;fillColor=#f8cecc;strokeColor=#b85450;" vertex="1" parent="1">
          <mxGeometry x="880" y="108" width="47.5" height="47.5" as="geometry" />
        </mxCell>
        <mxCell id="m3kiHNj2FQEK4pVcbGnA-51" value="" style="ellipse;whiteSpace=wrap;html=1;aspect=fixed;fillColor=#f8cecc;strokeColor=#b85450;" vertex="1" parent="1">
          <mxGeometry x="880" y="163.5" width="47.5" height="47.5" as="geometry" />
        </mxCell>
        <mxCell id="m3kiHNj2FQEK4pVcbGnA-52" value="" style="ellipse;whiteSpace=wrap;html=1;aspect=fixed;fillColor=#f8cecc;strokeColor=#b85450;" vertex="1" parent="1">
          <mxGeometry x="880" y="218" width="47.5" height="47.5" as="geometry" />
        </mxCell>
        <mxCell id="m3kiHNj2FQEK4pVcbGnA-53" value="" style="ellipse;whiteSpace=wrap;html=1;aspect=fixed;fillColor=#f8cecc;strokeColor=#b85450;" vertex="1" parent="1">
          <mxGeometry x="880" y="271.75" width="47.5" height="47.5" as="geometry" />
        </mxCell>
        <mxCell id="m3kiHNj2FQEK4pVcbGnA-54" value="&lt;b&gt;&lt;i&gt;Fully connected Layers&lt;/i&gt;&lt;/b&gt;&lt;div&gt;&lt;b&gt;&lt;i&gt;with activations&lt;/i&gt;&lt;/b&gt;&lt;/div&gt;" style="text;html=1;align=center;verticalAlign=middle;resizable=0;points=[];autosize=1;strokeColor=none;fillColor=none;" vertex="1" parent="1">
          <mxGeometry x="780" y="365" width="160" height="40" as="geometry" />
        </mxCell>
      </root>
    </mxGraphModel>
  </diagram>
</mxfile>
